<mxfile host="app.diagrams.net" agent="Mozilla/5.0 (Macintosh; Intel Mac OS X 10_15_7) AppleWebKit/605.1.15 (KHTML, like Gecko) Version/18.1 Safari/605.1.15" version="24.8.8">
  <diagram name="Page-1" id="k31MtHVrNLHm6JcI8Gvr">
    <mxGraphModel dx="940" dy="1023" grid="1" gridSize="10" guides="1" tooltips="1" connect="1" arrows="1" fold="1" page="1" pageScale="1" pageWidth="827" pageHeight="1169" math="0" shadow="0">
      <root>
        <mxCell id="0" />
        <mxCell id="1" parent="0" />
        <mxCell id="rIjQKqEtaqjptiBDt5Ou-27" style="edgeStyle=orthogonalEdgeStyle;rounded=0;orthogonalLoop=1;jettySize=auto;html=1;fontSize=14;" edge="1" parent="1" source="rIjQKqEtaqjptiBDt5Ou-1" target="rIjQKqEtaqjptiBDt5Ou-5">
          <mxGeometry relative="1" as="geometry" />
        </mxCell>
        <mxCell id="rIjQKqEtaqjptiBDt5Ou-1" value="Buch" style="swimlane;fontStyle=1;align=center;verticalAlign=top;childLayout=stackLayout;horizontal=1;startSize=26;horizontalStack=0;resizeParent=1;resizeParentMax=0;resizeLast=0;collapsible=1;marginBottom=0;whiteSpace=wrap;html=1;fontSize=14;" vertex="1" parent="1">
          <mxGeometry x="280" y="281" width="160" height="70" as="geometry" />
        </mxCell>
        <mxCell id="rIjQKqEtaqjptiBDt5Ou-2" value="+titel: String&lt;div&gt;+isbn: ISBN&lt;/div&gt;" style="text;strokeColor=none;fillColor=none;align=left;verticalAlign=top;spacingLeft=4;spacingRight=4;overflow=hidden;rotatable=0;points=[[0,0.5],[1,0.5]];portConstraint=eastwest;whiteSpace=wrap;html=1;fontSize=14;" vertex="1" parent="rIjQKqEtaqjptiBDt5Ou-1">
          <mxGeometry y="26" width="160" height="44" as="geometry" />
        </mxCell>
        <mxCell id="rIjQKqEtaqjptiBDt5Ou-5" value="Autor" style="swimlane;fontStyle=1;align=center;verticalAlign=top;childLayout=stackLayout;horizontal=1;startSize=26;horizontalStack=0;resizeParent=1;resizeParentMax=0;resizeLast=0;collapsible=1;marginBottom=0;whiteSpace=wrap;html=1;fontSize=14;" vertex="1" parent="1">
          <mxGeometry x="610" y="281" width="160" height="70" as="geometry" />
        </mxCell>
        <mxCell id="rIjQKqEtaqjptiBDt5Ou-6" value="&lt;div&gt;+ name : String&lt;/div&gt;&lt;div&gt;+ geburtsDatum: Date&lt;/div&gt;" style="text;strokeColor=none;fillColor=none;align=left;verticalAlign=top;spacingLeft=4;spacingRight=4;overflow=hidden;rotatable=0;points=[[0,0.5],[1,0.5]];portConstraint=eastwest;whiteSpace=wrap;html=1;fontSize=14;" vertex="1" parent="rIjQKqEtaqjptiBDt5Ou-5">
          <mxGeometry y="26" width="160" height="44" as="geometry" />
        </mxCell>
        <mxCell id="rIjQKqEtaqjptiBDt5Ou-25" style="edgeStyle=orthogonalEdgeStyle;rounded=0;orthogonalLoop=1;jettySize=auto;html=1;fontSize=14;" edge="1" parent="1" source="rIjQKqEtaqjptiBDt5Ou-9" target="rIjQKqEtaqjptiBDt5Ou-16">
          <mxGeometry relative="1" as="geometry" />
        </mxCell>
        <mxCell id="rIjQKqEtaqjptiBDt5Ou-9" value="Ausleiher" style="swimlane;fontStyle=1;align=center;verticalAlign=top;childLayout=stackLayout;horizontal=1;startSize=26;horizontalStack=0;resizeParent=1;resizeParentMax=0;resizeLast=0;collapsible=1;marginBottom=0;whiteSpace=wrap;html=1;fontSize=14;" vertex="1" parent="1">
          <mxGeometry x="280" y="585" width="160" height="70" as="geometry" />
        </mxCell>
        <mxCell id="rIjQKqEtaqjptiBDt5Ou-10" value="+name: String&lt;div&gt;+adresse : Address&lt;/div&gt;" style="text;strokeColor=none;fillColor=none;align=left;verticalAlign=top;spacingLeft=4;spacingRight=4;overflow=hidden;rotatable=0;points=[[0,0.5],[1,0.5]];portConstraint=eastwest;whiteSpace=wrap;html=1;fontSize=14;" vertex="1" parent="rIjQKqEtaqjptiBDt5Ou-9">
          <mxGeometry y="26" width="160" height="44" as="geometry" />
        </mxCell>
        <mxCell id="rIjQKqEtaqjptiBDt5Ou-26" style="edgeStyle=orthogonalEdgeStyle;rounded=0;orthogonalLoop=1;jettySize=auto;html=1;fontSize=14;" edge="1" parent="1" source="rIjQKqEtaqjptiBDt5Ou-16" target="rIjQKqEtaqjptiBDt5Ou-1">
          <mxGeometry relative="1" as="geometry" />
        </mxCell>
        <mxCell id="rIjQKqEtaqjptiBDt5Ou-16" value="Exemplar" style="swimlane;fontStyle=0;childLayout=stackLayout;horizontal=1;startSize=26;fillColor=none;horizontalStack=0;resizeParent=1;resizeParentMax=0;resizeLast=0;collapsible=1;marginBottom=0;whiteSpace=wrap;html=1;fontSize=14;" vertex="1" parent="1">
          <mxGeometry x="280" y="440" width="160" height="70" as="geometry" />
        </mxCell>
        <mxCell id="rIjQKqEtaqjptiBDt5Ou-18" value="+ field: type&lt;div&gt;+ status: Status&lt;/div&gt;" style="text;strokeColor=none;fillColor=none;align=left;verticalAlign=top;spacingLeft=4;spacingRight=4;overflow=hidden;rotatable=0;points=[[0,0.5],[1,0.5]];portConstraint=eastwest;whiteSpace=wrap;html=1;fontSize=14;" vertex="1" parent="rIjQKqEtaqjptiBDt5Ou-16">
          <mxGeometry y="26" width="160" height="44" as="geometry" />
        </mxCell>
        <mxCell id="rIjQKqEtaqjptiBDt5Ou-22" value="«enmeration»&lt;br&gt;&lt;b&gt;Status&lt;/b&gt;" style="html=1;whiteSpace=wrap;fontSize=14;" vertex="1" parent="1">
          <mxGeometry x="550" y="443" width="110" height="46" as="geometry" />
        </mxCell>
        <mxCell id="rIjQKqEtaqjptiBDt5Ou-28" value="*" style="text;html=1;align=center;verticalAlign=middle;whiteSpace=wrap;rounded=0;fontSize=14;" vertex="1" parent="1">
          <mxGeometry x="354" y="510" width="60" height="30" as="geometry" />
        </mxCell>
        <mxCell id="rIjQKqEtaqjptiBDt5Ou-29" value="0..1" style="text;html=1;align=center;verticalAlign=middle;whiteSpace=wrap;rounded=0;fontSize=14;" vertex="1" parent="1">
          <mxGeometry x="310" y="555" width="60" height="30" as="geometry" />
        </mxCell>
        <mxCell id="rIjQKqEtaqjptiBDt5Ou-30" value="1..*" style="text;html=1;align=center;verticalAlign=middle;whiteSpace=wrap;rounded=0;fontSize=14;" vertex="1" parent="1">
          <mxGeometry x="550" y="321" width="60" height="30" as="geometry" />
        </mxCell>
        <mxCell id="rIjQKqEtaqjptiBDt5Ou-31" value="1..*" style="text;html=1;align=center;verticalAlign=middle;whiteSpace=wrap;rounded=0;fontSize=14;" vertex="1" parent="1">
          <mxGeometry x="440" y="291" width="60" height="30" as="geometry" />
        </mxCell>
        <mxCell id="rIjQKqEtaqjptiBDt5Ou-32" value="im Bestand ▲" style="text;html=1;align=center;verticalAlign=middle;whiteSpace=wrap;rounded=0;fontSize=14;" vertex="1" parent="1">
          <mxGeometry x="260" y="380" width="120" height="30" as="geometry" />
        </mxCell>
        <mxCell id="rIjQKqEtaqjptiBDt5Ou-33" value="1" style="text;html=1;align=center;verticalAlign=middle;whiteSpace=wrap;rounded=0;fontSize=14;" vertex="1" parent="1">
          <mxGeometry x="340" y="350" width="60" height="30" as="geometry" />
        </mxCell>
        <mxCell id="rIjQKqEtaqjptiBDt5Ou-34" value="0..*" style="text;html=1;align=center;verticalAlign=middle;whiteSpace=wrap;rounded=0;fontSize=14;" vertex="1" parent="1">
          <mxGeometry x="350" y="413" width="60" height="30" as="geometry" />
        </mxCell>
      </root>
    </mxGraphModel>
  </diagram>
</mxfile>
